<?xml version="1.0" standalone="no"?>
<!DOCTYPE svg PUBLIC "-//W3C//DTD SVG 20010904//EN"
 "http://www.w3.org/TR/2001/REC-SVG-20010904/DTD/svg10.dtd">
<svg version="1.0" xmlns="http://www.w3.org/2000/svg"
 width="1024.000000pt" height="1024.000000pt" viewBox="0 0 1024.000000 1024.000000"
 preserveAspectRatio="xMidYMid meet">

<g transform="translate(0.000000,1024.000000) scale(0.100000,-0.100000)"
fill="#000000" stroke="none">
<path d="M5510 8250 c0 -5 9 -11 20 -15 34 -11 174 -158 213 -225 21 -36 58
-96 82 -135 79 -126 113 -197 86 -180 -5 3 -15 22 -22 43 -18 58 -34 71 -74
62 -19 -4 -36 -5 -39 -2 -4 3 -6 2 -6 -2 0 -4 9 -15 20 -24 18 -16 20 -34 25
-287 3 -148 10 -274 15 -279 5 -5 7 -28 3 -52 -5 -41 -4 -42 17 -37 13 4 25 0
31 -8 7 -11 9 -9 9 7 0 12 7 27 15 34 8 7 15 23 15 36 0 12 5 26 10 29 6 3 11
16 11 28 1 15 3 17 6 6 6 -23 -39 -150 -91 -257 -58 -116 -177 -247 -258 -282
-78 -34 -194 -51 -264 -40 -192 31 -315 120 -433 312 -52 84 -104 148 -122
148 -5 0 -22 11 -37 25 -15 14 -31 25 -35 25 -13 0 -36 26 -49 57 l-12 28 -4
-39 c-10 -116 81 -351 192 -493 94 -120 234 -209 376 -239 107 -23 320 -15
410 16 190 64 293 144 386 300 124 206 160 336 151 545 -9 216 -77 420 -191
571 -61 81 -204 218 -257 245 -82 41 -199 88 -199 79z m445 -661 c17 -74 19
-123 2 -64 -7 22 -16 47 -22 55 -5 8 -10 34 -10 57 -1 53 10 36 30 -48z"/>
<path d="M5446 7788 c10 -14 21 -24 23 -22 3 3 -6 15 -18 27 l-24 22 19 -27z"/>
<path d="M5095 7780 c10 -11 20 -20 23 -20 3 0 -3 9 -13 20 -10 11 -20 20 -23
20 -3 0 3 -9 13 -20z"/>
<path d="M6668 7787 c-71 -32 -84 -73 -46 -145 32 -60 75 -73 126 -39 21 13
38 33 39 43 1 11 5 34 9 52 4 21 2 32 -5 32 -6 0 -11 6 -11 13 0 19 -47 57
-68 56 -9 0 -29 -6 -44 -12z"/>
<path d="M5634 7620 c0 -63 1 -89 3 -57 2 31 2 83 0 115 -2 31 -3 5 -3 -58z"/>
<path d="M7030 7701 c0 -12 5 -21 10 -21 6 0 10 6 10 14 0 8 -4 18 -10 21 -5
3 -10 -3 -10 -14z"/>
<path d="M6301 7692 c-1 -7 8 -47 18 -90 49 -199 51 -289 11 -512 -26 -144
-68 -247 -153 -376 -105 -160 -238 -282 -365 -335 l-47 -20 3 -501 c2 -276 4
-504 6 -506 2 -2 32 10 67 26 75 35 163 96 244 170 l58 54 -21 66 c-38 124
-47 184 -46 337 0 121 4 158 18 190 10 22 27 72 38 110 11 39 25 77 33 85 7 8
25 39 39 67 34 69 128 177 210 242 41 33 66 60 66 73 0 15 5 18 23 14 12 -3
17 -3 10 0 -9 4 -8 13 3 38 15 30 14 45 -15 216 -38 222 -93 404 -121 397 -15
-4 -18 6 -22 78 -4 60 -13 98 -31 136 -14 30 -26 48 -26 41z"/>
<path d="M5471 7604 c0 -11 3 -14 6 -6 3 7 2 16 -1 19 -3 4 -6 -2 -5 -13z"/>
<path d="M5628 7268 c-3 -90 -1 -172 3 -183 4 -11 8 62 8 163 1 100 -1 182 -3
182 -2 0 -6 -73 -8 -162z"/>
<path d="M7202 7340 c0 -19 2 -27 5 -17 2 9 2 25 0 35 -3 9 -5 1 -5 -18z"/>
<path d="M5130 7272 c0 -51 4 -92 9 -92 8 0 3 170 -5 179 -2 2 -4 -37 -4 -87z"/>
<path d="M7223 7330 c3 -8 -3 -24 -13 -35 -13 -15 -19 -46 -24 -122 -3 -56 -3
-109 0 -117 7 -17 35 -20 96 -10 35 6 37 8 31 38 -9 51 -62 209 -79 236 -8 14
-13 18 -11 10z"/>
<path d="M7466 7287 c3 -10 9 -15 12 -12 3 3 0 11 -7 18 -10 9 -11 8 -5 -6z"/>
<path d="M5471 7168 l-1 -116 -31 -26 c-35 -30 -53 -32 -93 -11 l-30 16 20
-22 c16 -17 26 -20 59 -14 22 3 49 7 59 9 10 1 29 14 41 28 17 20 26 23 34 15
8 -8 11 -3 11 20 0 17 6 33 13 36 17 6 4 18 -22 20 -13 1 -20 6 -17 14 3 7 -2
20 -12 29 -9 10 -20 40 -23 68 -4 37 -7 18 -8 -66z"/>
<path d="M5293 7160 c0 -36 2 -50 4 -32 2 17 2 47 0 65 -2 17 -4 3 -4 -33z"/>
<path d="M5139 7115 c-5 -60 -4 -73 7 -63 3 3 4 32 2 64 l-3 59 -6 -60z"/>
<path d="M5821 7084 c0 -11 3 -14 6 -6 3 7 2 16 -1 19 -3 4 -6 -2 -5 -13z"/>
<path d="M5100 7020 c-8 -5 -12 -11 -9 -14 2 -3 11 -1 19 4 8 5 12 11 9 14 -2
3 -11 1 -19 -4z"/>
<path d="M7547 6943 c8 -50 13 -55 13 -10 0 20 -4 38 -9 42 -6 3 -7 -10 -4
-32z"/>
<path d="M4557 6768 c8 -29 41 -107 72 -173 54 -113 106 -186 251 -357 33 -40
31 -46 -10 -23 -14 8 -35 14 -47 15 -12 0 -28 7 -37 15 -8 8 -28 15 -45 15
-26 0 -31 4 -31 25 0 14 -8 29 -20 35 -19 10 -20 9 -14 -17 4 -15 10 -35 14
-43 18 -35 43 -223 43 -315 -1 -113 -27 -232 -68 -301 l-25 -42 38 -28 c20
-15 62 -49 92 -75 62 -52 207 -149 224 -149 8 0 10 122 8 449 -1 247 1 474 6
505 l9 56 -61 29 c-153 72 -297 218 -387 391 -12 22 -22 40 -24 40 -2 0 4 -24
12 -52z"/>
<path d="M6525 6800 c4 -6 11 -8 16 -5 14 9 11 15 -7 15 -8 0 -12 -5 -9 -10z"/>
<path d="M7346 6745 c-9 -26 -7 -32 5 -12 6 10 9 21 6 23 -2 3 -7 -2 -11 -11z"/>
<path d="M7590 6717 c0 -7 5 -61 10 -121 22 -232 -22 -504 -115 -708 -91 -197
-197 -331 -366 -458 -46 -35 -142 -123 -214 -195 -192 -193 -390 -331 -628
-438 -107 -47 -368 -129 -458 -142 l-46 -7 -6 -171 c-4 -95 -7 -211 -7 -258
l0 -86 48 8 c252 47 535 144 762 259 362 186 731 506 974 844 73 102 181 283
223 373 84 183 175 470 207 654 9 53 46 403 42 406 -1 1 -80 8 -175 13 -95 6
-190 18 -212 25 -29 11 -39 11 -39 2z"/>
<path d="M7368 6713 c6 -2 18 -2 25 0 6 3 1 5 -13 5 -14 0 -19 -2 -12 -5z"/>
<path d="M3095 6699 c-38 -5 -123 -11 -187 -15 l-118 -6 0 -111 c0 -62 7 -155
15 -207 52 -324 180 -727 275 -860 11 -15 20 -31 20 -34 0 -14 120 -196 185
-281 91 -119 354 -386 480 -488 138 -111 348 -248 485 -317 196 -98 449 -183
650 -219 l99 -17 3 245 c2 135 1 249 -2 253 -3 4 -52 17 -109 28 -148 30 -202
50 -416 155 -271 132 -514 309 -645 470 -33 40 -93 97 -132 126 -206 148 -377
378 -446 599 -61 193 -76 307 -70 520 4 124 3 170 -6 169 -6 -1 -42 -5 -81
-10z"/>
<path d="M7400 6693 c0 -7 -10 -13 -22 -15 -16 -2 -22 -9 -20 -20 2 -10 -2
-18 -8 -18 -5 0 -10 -4 -10 -10 0 -5 7 -10 15 -10 14 0 14 -3 1 -22 -16 -26
-47 -147 -75 -299 -27 -137 -79 -265 -149 -363 -110 -153 -232 -225 -394 -234
-99 -5 -103 -7 -181 -125 -49 -74 -170 -207 -205 -226 -50 -27 -136 29 -118
75 8 20 16 26 -89 -63 -108 -91 -204 -151 -297 -184 -79 -29 -89 -35 -84 -53
3 -12 6 -65 6 -119 l0 -98 99 51 c161 83 308 197 522 405 l137 133 43 -9 c72
-13 208 -10 278 7 88 22 168 65 240 130 157 143 279 378 317 613 18 114 22
437 5 454 -8 8 -11 8 -11 0z"/>
<path d="M4445 6298 c2 -21 -1 -40 -6 -44 -6 -3 -8 -12 -5 -20 3 -8 -1 -14 -8
-14 -8 0 -17 -6 -19 -12 -4 -8 -6 -7 -6 4 -1 9 5 19 12 21 9 4 9 6 -1 6 -7 1
-15 -6 -18 -14 -4 -8 -14 -15 -23 -16 -12 0 -12 -2 4 -9 17 -7 17 -9 3 -9 -10
-1 -18 -8 -18 -16 0 -21 -20 -19 -21 3 -1 9 -1 20 0 25 0 4 -3 7 -9 7 -5 0
-10 6 -10 14 0 19 -40 28 -47 10 -3 -8 -9 -12 -13 -9 -11 7 -62 -35 -57 -48 2
-7 -6 -21 -17 -33 -24 -26 -106 -40 -106 -19 0 7 -9 15 -20 18 -23 6 -32 18
121 -164 52 -63 117 -143 144 -179 55 -74 105 -130 117 -130 13 0 59 88 74
142 8 30 15 102 16 163 1 121 -21 226 -67 313 l-24 47 4 -37z m-162 -225 c-7
-2 -21 -2 -30 0 -10 3 -4 5 12 5 17 0 24 -2 18 -5z"/>
<path d="M5190 6245 l0 -72 67 -11 c84 -14 115 -36 130 -93 8 -31 11 -225 11
-679 0 -549 -8 -916 -18 -785 -1 22 -4 33 -7 23 -6 -25 -33 -31 -33 -8 0 11
-4 20 -10 20 -5 0 -10 15 -10 34 0 26 -5 36 -20 41 -11 3 -20 15 -20 26 0 10
-4 19 -10 19 -5 0 -10 16 -10 36 0 28 -3 35 -15 30 -8 -3 -15 -2 -15 2 -1 4
-5 27 -10 52 -6 25 -13 108 -16 185 -3 77 -8 142 -10 144 -2 2 -4 -85 -5 -195
-1 -109 -3 -358 -5 -551 l-4 -353 153 0 c83 0 175 3 202 6 l50 6 0 1086 0
1087 -30 6 c-16 4 -73 4 -125 2 -52 -3 -128 -1 -167 4 l-73 9 0 -71z"/>
<path d="M3381 6295 c-3 -47 35 -221 63 -291 71 -175 242 -376 376 -444 133
-67 302 -88 428 -52 l63 18 -27 24 c-14 14 -49 59 -77 100 -49 73 -156 210
-163 210 -2 0 8 -17 22 -37 17 -26 21 -40 14 -47 -6 -6 -51 -11 -103 -11 -90
0 -94 1 -168 43 -112 62 -219 188 -322 377 -34 63 -47 80 -64 78 -12 -1 -24 6
-31 20 -6 12 -11 18 -11 12z"/>
<path d="M6518 5969 c-10 -5 -18 -17 -18 -26 0 -12 5 -11 20 7 28 32 27 37 -2
19z"/>
<path d="M6264 5901 c13 -130 48 -231 80 -231 17 0 86 76 144 160 31 43 38 58
24 51 -11 -6 -23 -16 -25 -23 -4 -9 -6 -8 -6 3 -1 17 32 53 41 44 2 -3 5 1 5
8 0 10 -10 13 -30 11 -24 -3 -27 -1 -18 10 9 11 -6 13 -93 12 -57 0 -104 3
-103 8 1 5 -4 11 -12 14 -11 4 -13 -8 -7 -67z"/>
<path d="M6540 5909 c0 -5 5 -7 10 -4 6 3 10 8 10 11 0 2 -4 4 -10 4 -5 0 -10
-5 -10 -11z"/>
<path d="M5194 5440 c0 -102 2 -143 3 -92 2 50 2 134 0 185 -1 50 -3 9 -3 -93z"/>
<path d="M4494 5471 c4 -5 -15 -27 -41 -49 -45 -39 -46 -41 -31 -64 24 -37
156 -166 231 -225 97 -78 172 -126 266 -171 l81 -38 0 51 c0 29 3 80 6 113 l7
62 -69 30 c-91 41 -142 74 -306 197 -128 97 -157 116 -144 94z"/>
<path d="M4146 5301 l-69 -6 39 -36 c92 -82 377 -269 412 -269 16 0 -36 58
-146 164 -46 44 -93 97 -104 118 -15 27 -28 37 -42 36 -12 -1 -52 -4 -90 -7z"/>
<path d="M6709 5306 c-2 -3 -35 -6 -72 -7 -54 -2 -70 -6 -78 -21 -5 -10 -16
-18 -24 -18 -8 0 -15 -6 -15 -14 0 -8 -8 -17 -17 -21 -17 -6 -17 -7 -1 -19 23
-17 11 -28 -15 -14 -17 9 -19 8 -14 -6 3 -8 1 -18 -5 -22 -6 -4 -8 -3 -4 4 3
6 2 13 -2 16 -5 3 -33 -16 -63 -43 -30 -27 -87 -69 -127 -95 -39 -26 -72 -54
-72 -62 0 -9 -5 -12 -12 -8 -10 5 -10 4 -1 -6 9 -10 26 -6 85 22 40 19 81 43
91 52 9 10 17 15 17 12 0 -9 77 32 85 44 3 5 -1 10 -11 10 -14 0 -14 3 -4 16
20 24 48 36 55 24 4 -6 3 -10 -2 -9 -21 4 -32 -2 -27 -16 5 -13 8 -13 21 0 8
8 19 15 24 15 5 0 9 7 9 15 0 8 6 12 13 10 6 -3 29 9 50 26 29 24 35 34 27 44
-8 10 -8 15 0 20 6 4 9 13 6 21 -4 10 3 14 27 14 24 0 28 -3 17 -10 -8 -5 -12
-12 -8 -15 3 -3 19 5 34 19 16 14 26 26 23 26 -3 0 -8 -2 -10 -4z"/>
<path d="M6073 4923 c-29 -15 -51 -29 -49 -30 7 -7 116 39 116 48 0 14 -10 11
-67 -18z"/>
<path d="M8574 3911 c-53 -24 -109 -91 -123 -148 -31 -120 79 -254 206 -253
88 1 172 55 209 134 38 82 30 142 -29 205 -70 73 -180 100 -263 62z m159 -42
c70 -36 114 -112 102 -175 -7 -39 -54 -98 -96 -120 -91 -47 -229 26 -246 130
-7 45 32 115 85 151 40 27 115 34 155 14z"/>
<path d="M8590 3793 c0 -17 3 -64 6 -106 6 -64 10 -77 24 -77 12 0 20 11 24
35 9 45 22 44 43 0 13 -26 23 -35 38 -33 21 3 20 1 40 139 9 55 4 58 -102 66
l-73 6 0 -30z m104 -19 c9 -8 16 -24 16 -35 0 -16 -6 -20 -27 -17 -28 3 -40
25 -29 54 7 18 21 18 40 -2z"/>
<path d="M7351 3850 c-145 -35 -165 -239 -31 -308 109 -56 233 28 234 159 0
103 -98 175 -203 149z"/>
<path d="M6730 3812 c-21 -17 -21 -22 -20 -291 l1 -273 -50 36 c-27 20 -75 48
-107 64 -52 24 -70 27 -159 26 -119 0 -176 -19 -290 -95 -95 -64 -161 -137
-206 -230 -46 -93 -63 -164 -61 -259 2 -147 74 -295 205 -417 198 -185 396
-198 622 -43 l45 31 0 -40 c0 -28 7 -48 24 -68 21 -25 32 -28 99 -31 83 -4
142 10 157 37 11 21 15 1496 4 1524 -12 33 -58 47 -152 47 -71 0 -94 -4 -112
-18z m-182 -728 c56 -28 87 -59 130 -132 24 -43 27 -56 26 -142 -1 -151 -42
-224 -156 -275 -67 -30 -145 -36 -214 -17 -235 67 -275 443 -59 554 58 30 83
36 156 37 51 1 76 -5 117 -25z"/>
<path d="M2143 3802 c-13 -2 -32 -15 -43 -29 -20 -25 -20 -38 -20 -743 0 -485
3 -727 11 -748 16 -48 47 -62 134 -62 86 0 125 15 143 55 8 17 12 95 12 239 0
117 3 241 6 275 l7 61 276 -7 c308 -7 340 -3 366 47 9 17 15 56 15 94 0 58 -3
69 -29 98 l-29 33 -307 3 -308 3 7 46 c3 25 6 114 6 197 l0 151 360 0 360 0
25 26 c24 23 27 36 32 120 5 82 3 97 -13 117 l-19 23 -485 2 c-267 1 -495 1
-507 -1z"/>
<path d="M3730 3384 c-210 -32 -378 -137 -469 -293 -60 -100 -74 -163 -69
-295 6 -131 26 -191 99 -301 118 -176 299 -275 504 -275 168 0 322 74 440 210
91 105 135 229 135 382 0 258 -147 459 -396 540 -76 25 -192 40 -244 32z m182
-296 c57 -24 122 -92 151 -156 29 -66 30 -180 0 -243 -111 -243 -436 -246
-560 -5 -70 137 -11 332 121 395 91 45 198 48 288 9z"/>
<path d="M8250 3384 c-126 -19 -205 -47 -290 -105 -102 -68 -182 -173 -222
-294 -33 -99 -32 -283 1 -368 29 -75 109 -193 163 -243 63 -58 167 -112 260
-136 112 -28 271 -22 370 15 93 34 173 84 220 137 l40 45 -37 30 c-21 17 -64
54 -97 84 l-60 53 -37 -35 c-46 -44 -81 -62 -154 -77 -156 -32 -349 60 -373
177 l-6 28 359 -3 c197 -2 374 0 393 5 48 13 65 49 62 140 -2 97 -16 155 -59
240 -51 104 -134 191 -230 241 -43 22 -96 45 -118 50 -49 12 -151 21 -185 16z
m143 -268 c77 -28 132 -89 151 -168 l6 -28 -265 0 c-205 0 -265 3 -265 13 1
26 39 94 72 125 68 65 207 91 301 58z"/>
<path d="M4970 3369 c-235 -65 -391 -216 -446 -431 -32 -125 -3 -297 71 -424
47 -80 160 -184 245 -226 241 -119 497 -81 681 102 235 233 239 591 9 820
-114 114 -258 171 -430 169 -52 0 -111 -5 -130 -10z m266 -279 c127 -55 202
-203 173 -341 -50 -242 -344 -331 -519 -156 -70 69 -85 108 -85 217 0 102 13
140 71 209 31 37 108 79 168 91 55 11 141 3 192 -20z"/>
<path d="M7321 3347 c-72 -25 -69 -6 -77 -557 l-7 -495 22 -27 c29 -37 80 -51
163 -46 62 3 73 7 94 31 l24 28 0 508 0 508 -22 20 c-43 39 -132 53 -197 30z"/>
<path d="M4613 1858 c-18 -22 -213 -522 -213 -546 0 -26 27 -35 91 -30 l44 3
21 60 21 60 103 5 102 5 18 -35 c9 -19 20 -47 23 -61 8 -30 29 -39 100 -39 45
0 47 1 47 28 0 28 -173 465 -207 524 -18 31 -23 33 -79 36 -41 2 -64 -1 -71
-10z m112 -264 l24 -59 -22 -7 c-12 -3 -39 -6 -59 -7 -47 -1 -49 14 -13 95 29
66 35 64 70 -22z"/>
<path d="M5194 1855 c-2 -5 -2 -136 -1 -290 l2 -280 65 0 65 0 2 65 c2 36 5
79 8 96 l5 32 89 4 c76 3 95 8 128 31 50 35 73 75 80 140 6 66 -25 129 -86
172 -42 30 -45 30 -198 35 -99 3 -157 1 -159 -5z m279 -143 c22 -20 22 -64 -2
-93 -14 -18 -31 -23 -80 -27 l-61 -4 0 70 c0 39 4 72 10 74 24 8 117 -5 133
-20z"/>
<path d="M5872 1582 l3 -287 59 -3 c41 -2 62 1 67 10 5 7 9 49 9 94 l0 81 77
2 c108 3 170 32 212 101 25 41 28 117 7 158 -20 38 -85 97 -121 110 -16 6 -94
13 -173 15 l-142 5 2 -286z m282 133 c64 -59 9 -125 -105 -125 l-49 0 0 69 c0
78 0 78 81 80 36 1 52 -4 73 -24z"/>
<path d="M3800 1723 c-67 -26 -82 -103 -28 -148 49 -42 108 -22 143 48 16 31
11 50 -22 79 -21 20 -70 30 -93 21z"/>
<path d="M6900 1723 c-30 -11 -70 -57 -70 -81 0 -36 51 -82 93 -82 40 0 83 35
93 76 6 23 1 33 -29 61 -35 32 -55 38 -87 26z m99 -54 c13 -24 13 -29 -8 -58
-16 -22 -30 -31 -50 -31 -23 0 -26 4 -25 28 4 101 1 94 36 90 23 -2 37 -11 47
-29z"/>
<path d="M2133 1710 c-21 -9 -43 -38 -43 -59 0 -5 12 -23 26 -40 l26 -31 96 2
97 2 -87 3 c-82 4 -88 5 -107 31 -34 48 -32 85 4 76 14 -3 25 -2 25 2 0 5 100
8 222 8 123 -1 232 2 243 7 11 4 -91 8 -230 8 -137 0 -260 -4 -272 -9z"/>
<path d="M2838 1713 c79 -2 205 -2 280 0 75 1 11 3 -143 3 -154 0 -216 -2
-137 -3z"/>
<path d="M3438 1713 c23 -2 61 -2 85 0 23 2 4 4 -43 4 -47 0 -66 -2 -42 -4z"/>
<path d="M7403 1713 c108 -2 286 -2 395 0 108 1 19 2 -198 2 -217 0 -306 -1
-197 -2z"/>
<path d="M8131 1716 c2 -3 69 -7 149 -10 80 -4 168 -11 196 -17 28 -5 58 -9
65 -7 10 2 15 -10 17 -39 3 -42 3 -43 -30 -44 -18 -1 -41 0 -52 1 -11 1 -15
-3 -12 -9 9 -13 205 -15 225 -2 11 7 9 10 -7 15 -24 8 -19 36 7 36 14 0 14 -2
1 -11 -12 -7 -8 -9 15 -7 24 2 31 8 33 29 2 16 -5 32 -18 44 -19 18 -42 19
-307 22 -157 1 -284 1 -282 -1z"/>
<path d="M7428 1583 c28 -2 76 -2 105 0 28 2 5 3 -53 3 -58 0 -81 -1 -52 -3z"/>
</g>
</svg>
